<?xml version="1.0" encoding="utf-8"?>
<!-- Generator: Adobe Illustrator 28.3.0, SVG Export Plug-In . SVG Version: 6.00 Build 0)  -->
<svg version="1.1" id="Calque_1" xmlns="http://www.w3.org/2000/svg" xmlns:xlink="http://www.w3.org/1999/xlink" x="0px" y="0px"
	 viewBox="0 0 838 690.5" style="enable-background:new 0 0 838 690.5;" xml:space="preserve">
<style type="text/css">
	.st0{fill:none;stroke:#505050;stroke-width:0.71;}
	.st1{fill:#FFFFFF;stroke:#333333;}
	.st2{font-family:'ArialMT';}
	.st3{font-size:12px;}
	.st4{enable-background:new    ;}
	.st5{font-family:'MyriadPro-Regular';}
</style>
<g transform="translate(165.06888714001042,-31.121733295865965) scale(1.0000000000000007)">
	<path marker-end="" class="st0" d="M-26.3,60.4l180,80"/>
	<path marker-end="" class="st0" d="M-26.3,60.4l180,120"/>
	<path marker-end="" class="st0" d="M-26.3,60.4l180,160"/>
	<path marker-end="" class="st0" d="M-26.3,60.4l180,200"/>
	<path marker-end="" class="st0" d="M-26.3,60.4l180,240"/>
	<path marker-end="" class="st0" d="M-26.3,60.4l180,280"/>
	<path marker-end="" class="st0" d="M-26.3,60.4l180,320"/>
	<path marker-end="" class="st0" d="M-26.3,60.4l180,360"/>
	<path marker-end="" class="st0" d="M-26.3,60.4l180,400"/>
	<path marker-end="" class="st0" d="M-26.3,60.4l180,440"/>
	<path marker-end="" class="st0" d="M-26.3,60.4l180,480"/>
	<path marker-end="" class="st0" d="M-26.3,60.4l180,520"/>
	<path marker-end="" class="st0" d="M-26.3,100.4l180,40"/>
	<path marker-end="" class="st0" d="M-26.3,100.4l180,80"/>
	<path marker-end="" class="st0" d="M-26.3,100.4l180,120"/>
	<path marker-end="" class="st0" d="M-26.3,100.4l180,160"/>
	<path marker-end="" class="st0" d="M-26.3,100.4l180,200"/>
	<path marker-end="" class="st0" d="M-26.3,100.4l180,240"/>
	<path marker-end="" class="st0" d="M-26.3,100.4l180,280"/>
	<path marker-end="" class="st0" d="M-26.3,100.4l180,320"/>
	<path marker-end="" class="st0" d="M-26.3,100.4l180,360"/>
	<path marker-end="" class="st0" d="M-26.3,100.4l180,400"/>
	<path marker-end="" class="st0" d="M-26.3,100.4l180,440"/>
	<path marker-end="" class="st0" d="M-26.3,100.4l180,480"/>
	<path marker-end="" class="st0" d="M-26.3,140.4h180"/>
	<path marker-end="" class="st0" d="M-26.3,140.4l180,40"/>
	<path marker-end="" class="st0" d="M-26.3,140.4l180,80"/>
	<path marker-end="" class="st0" d="M-26.3,140.4l180,120"/>
	<path marker-end="" class="st0" d="M-26.3,140.4l180,160"/>
	<path marker-end="" class="st0" d="M-26.3,140.4l180,200"/>
	<path marker-end="" class="st0" d="M-26.3,140.4l180,240"/>
	<path marker-end="" class="st0" d="M-26.3,140.4l180,280"/>
	<path marker-end="" class="st0" d="M-26.3,140.4l180,320"/>
	<path marker-end="" class="st0" d="M-26.3,140.4l180,360"/>
	<path marker-end="" class="st0" d="M-26.3,140.4l180,400"/>
	<path marker-end="" class="st0" d="M-26.3,140.4l180,440"/>
	<path marker-end="" class="st0" d="M-26.3,180.4l180-40"/>
	<path marker-end="" class="st0" d="M-26.3,180.4h180"/>
	<path marker-end="" class="st0" d="M-26.3,180.4l180,40"/>
	<path marker-end="" class="st0" d="M-26.3,180.4l180,80"/>
	<path marker-end="" class="st0" d="M-26.3,180.4l180,120"/>
	<path marker-end="" class="st0" d="M-26.3,180.4l180,160"/>
	<path marker-end="" class="st0" d="M-26.3,180.4l180,200"/>
	<path marker-end="" class="st0" d="M-26.3,180.4l180,240"/>
	<path marker-end="" class="st0" d="M-26.3,180.4l180,280"/>
	<path marker-end="" class="st0" d="M-26.3,180.4l180,320"/>
	<path marker-end="" class="st0" d="M-26.3,180.4l180,360"/>
	<path marker-end="" class="st0" d="M-26.3,180.4l180,400"/>
	<path marker-end="" class="st0" d="M-26.3,220.4l180-80"/>
	<path marker-end="" class="st0" d="M-26.3,220.4l180-40"/>
	<path marker-end="" class="st0" d="M-26.3,220.4h180"/>
	<path marker-end="" class="st0" d="M-26.3,220.4l180,40"/>
	<path marker-end="" class="st0" d="M-26.3,220.4l180,80"/>
	<path marker-end="" class="st0" d="M-26.3,220.4l180,120"/>
	<path marker-end="" class="st0" d="M-26.3,220.4l180,160"/>
	<path marker-end="" class="st0" d="M-26.3,220.4l180,200"/>
	<path marker-end="" class="st0" d="M-26.3,220.4l180,240"/>
	<path marker-end="" class="st0" d="M-26.3,220.4l180,280"/>
	<path marker-end="" class="st0" d="M-26.3,220.4l180,320"/>
	<path marker-end="" class="st0" d="M-26.3,220.4l180,360"/>
	<path marker-end="" class="st0" d="M-26.3,260.4l180-120"/>
	<path marker-end="" class="st0" d="M-26.3,260.4l180-80"/>
	<path marker-end="" class="st0" d="M-26.3,260.4l180-40"/>
	<path marker-end="" class="st0" d="M-26.3,260.4h180"/>
	<path marker-end="" class="st0" d="M-26.3,260.4l180,40"/>
	<path marker-end="" class="st0" d="M-26.3,260.4l180,80"/>
	<path marker-end="" class="st0" d="M-26.3,260.4l180,120"/>
	<path marker-end="" class="st0" d="M-26.3,260.4l180,160"/>
	<path marker-end="" class="st0" d="M-26.3,260.4l180,200"/>
	<path marker-end="" class="st0" d="M-26.3,260.4l180,240"/>
	<path marker-end="" class="st0" d="M-26.3,260.4l180,280"/>
	<path marker-end="" class="st0" d="M-26.3,260.4l180,320"/>
	<path marker-end="" class="st0" d="M-26.3,300.4l180-160"/>
	<path marker-end="" class="st0" d="M-26.3,300.4l180-120"/>
	<path marker-end="" class="st0" d="M-26.3,300.4l180-80"/>
	<path marker-end="" class="st0" d="M-26.3,300.4l180-40"/>
	<path marker-end="" class="st0" d="M-26.3,300.4h180"/>
	<path marker-end="" class="st0" d="M-26.3,300.4l180,40"/>
	<path marker-end="" class="st0" d="M-26.3,300.4l180,80"/>
	<path marker-end="" class="st0" d="M-26.3,300.4l180,120"/>
	<path marker-end="" class="st0" d="M-26.3,300.4l180,160"/>
	<path marker-end="" class="st0" d="M-26.3,300.4l180,200"/>
	<path marker-end="" class="st0" d="M-26.3,300.4l180,240"/>
	<path marker-end="" class="st0" d="M-26.3,300.4l180,280"/>
	<path marker-end="" class="st0" d="M-26.3,340.4l180-200"/>
	<path marker-end="" class="st0" d="M-26.3,340.4l180-160"/>
	<path marker-end="" class="st0" d="M-26.3,340.4l180-120"/>
	<path marker-end="" class="st0" d="M-26.3,340.4l180-80"/>
	<path marker-end="" class="st0" d="M-26.3,340.4l180-40"/>
	<path marker-end="" class="st0" d="M-26.3,340.4h180"/>
	<path marker-end="" class="st0" d="M-26.3,340.4l180,40"/>
	<path marker-end="" class="st0" d="M-26.3,340.4l180,80"/>
	<path marker-end="" class="st0" d="M-26.3,340.4l180,120"/>
	<path marker-end="" class="st0" d="M-26.3,340.4l180,160"/>
	<path marker-end="" class="st0" d="M-26.3,340.4l180,200"/>
	<path marker-end="" class="st0" d="M-26.3,340.4l180,240"/>
	<path marker-end="" class="st0" d="M-26.3,380.4l180-240"/>
	<path marker-end="" class="st0" d="M-26.3,380.4l180-200"/>
	<path marker-end="" class="st0" d="M-26.3,380.4l180-160"/>
	<path marker-end="" class="st0" d="M-26.3,380.4l180-120"/>
	<path marker-end="" class="st0" d="M-26.3,380.4l180-80"/>
	<path marker-end="" class="st0" d="M-26.3,380.4l180-40"/>
	<path marker-end="" class="st0" d="M-26.3,380.4h180"/>
	<path marker-end="" class="st0" d="M-26.3,380.4l180,40"/>
	<path marker-end="" class="st0" d="M-26.3,380.4l180,80"/>
	<path marker-end="" class="st0" d="M-26.3,380.4l180,120"/>
	<path marker-end="" class="st0" d="M-26.3,380.4l180,160"/>
	<path marker-end="" class="st0" d="M-26.3,380.4l180,200"/>
	<path marker-end="" class="st0" d="M-26.3,420.4l180-280"/>
	<path marker-end="" class="st0" d="M-26.3,420.4l180-240"/>
	<path marker-end="" class="st0" d="M-26.3,420.4l180-200"/>
	<path marker-end="" class="st0" d="M-26.3,420.4l180-160"/>
	<path marker-end="" class="st0" d="M-26.3,420.4l180-120"/>
	<path marker-end="" class="st0" d="M-26.3,420.4l180-80"/>
	<path marker-end="" class="st0" d="M-26.3,420.4l180-40"/>
	<path marker-end="" class="st0" d="M-26.3,420.4h180"/>
	<path marker-end="" class="st0" d="M-26.3,420.4l180,40"/>
	<path marker-end="" class="st0" d="M-26.3,420.4l180,80"/>
	<path marker-end="" class="st0" d="M-26.3,420.4l180,120"/>
	<path marker-end="" class="st0" d="M-26.3,420.4l180,160"/>
	<path marker-end="" class="st0" d="M-26.3,460.4l180-320"/>
	<path marker-end="" class="st0" d="M-26.3,460.4l180-280"/>
	<path marker-end="" class="st0" d="M-26.3,460.4l180-240"/>
	<path marker-end="" class="st0" d="M-26.3,460.4l180-200"/>
	<path marker-end="" class="st0" d="M-26.3,460.4l180-160"/>
	<path marker-end="" class="st0" d="M-26.3,460.4l180-120"/>
	<path marker-end="" class="st0" d="M-26.3,460.4l180-80"/>
	<path marker-end="" class="st0" d="M-26.3,460.4l180-40"/>
	<path marker-end="" class="st0" d="M-26.3,460.4h180"/>
	<path marker-end="" class="st0" d="M-26.3,460.4l180,40"/>
	<path marker-end="" class="st0" d="M-26.3,460.4l180,80"/>
	<path marker-end="" class="st0" d="M-26.3,460.4l180,120"/>
	<path marker-end="" class="st0" d="M-26.3,500.4l180-360"/>
	<path marker-end="" class="st0" d="M-26.3,500.4l180-320"/>
	<path marker-end="" class="st0" d="M-26.3,500.4l180-280"/>
	<path marker-end="" class="st0" d="M-26.3,500.4l180-240"/>
	<path marker-end="" class="st0" d="M-26.3,500.4l180-200"/>
	<path marker-end="" class="st0" d="M-26.3,500.4l180-160"/>
	<path marker-end="" class="st0" d="M-26.3,500.4l180-120"/>
	<path marker-end="" class="st0" d="M-26.3,500.4l180-80"/>
	<path marker-end="" class="st0" d="M-26.3,500.4l180-40"/>
	<path marker-end="" class="st0" d="M-26.3,500.4h180"/>
	<path marker-end="" class="st0" d="M-26.3,500.4l180,40"/>
	<path marker-end="" class="st0" d="M-26.3,500.4l180,80"/>
	<path marker-end="" class="st0" d="M-26.3,540.4l180-400"/>
	<path marker-end="" class="st0" d="M-26.3,540.4l180-360"/>
	<path marker-end="" class="st0" d="M-26.3,540.4l180-320"/>
	<path marker-end="" class="st0" d="M-26.3,540.4l180-280"/>
	<path marker-end="" class="st0" d="M-26.3,540.4l180-240"/>
	<path marker-end="" class="st0" d="M-26.3,540.4l180-200"/>
	<path marker-end="" class="st0" d="M-26.3,540.4l180-160"/>
	<path marker-end="" class="st0" d="M-26.3,540.4l180-120"/>
	<path marker-end="" class="st0" d="M-26.3,540.4l180-80"/>
	<path marker-end="" class="st0" d="M-26.3,540.4l180-40"/>
	<path marker-end="" class="st0" d="M-26.3,540.4h180"/>
	<path marker-end="" class="st0" d="M-26.3,540.4l180,40"/>
	<path marker-end="" class="st0" d="M-26.3,580.4l180-440"/>
	<path marker-end="" class="st0" d="M-26.3,580.4l180-400"/>
	<path marker-end="" class="st0" d="M-26.3,580.4l180-360"/>
	<path marker-end="" class="st0" d="M-26.3,580.4l180-320"/>
	<path marker-end="" class="st0" d="M-26.3,580.4l180-280"/>
	<path marker-end="" class="st0" d="M-26.3,580.4l180-240"/>
	<path marker-end="" class="st0" d="M-26.3,580.4l180-200"/>
	<path marker-end="" class="st0" d="M-26.3,580.4l180-160"/>
	<path marker-end="" class="st0" d="M-26.3,580.4l180-120"/>
	<path marker-end="" class="st0" d="M-26.3,580.4l180-80"/>
	<path marker-end="" class="st0" d="M-26.3,580.4l180-40"/>
	<path marker-end="" class="st0" d="M-26.3,580.4h180"/>
	<path marker-end="" class="st0" d="M-26.3,620.4l180-480"/>
	<path marker-end="" class="st0" d="M-26.3,620.4l180-440"/>
	<path marker-end="" class="st0" d="M-26.3,620.4l180-400"/>
	<path marker-end="" class="st0" d="M-26.3,620.4l180-360"/>
	<path marker-end="" class="st0" d="M-26.3,620.4l180-320"/>
	<path marker-end="" class="st0" d="M-26.3,620.4l180-280"/>
	<path marker-end="" class="st0" d="M-26.3,620.4l180-240"/>
	<path marker-end="" class="st0" d="M-26.3,620.4l180-200"/>
	<path marker-end="" class="st0" d="M-26.3,620.4l180-160"/>
	<path marker-end="" class="st0" d="M-26.3,620.4l180-120"/>
	<path marker-end="" class="st0" d="M-26.3,620.4l180-80"/>
	<path marker-end="" class="st0" d="M-26.3,620.4l180-40"/>
	<path marker-end="" class="st0" d="M-26.3,660.4l180-520"/>
	<path marker-end="" class="st0" d="M-26.3,660.4l180-480"/>
	<path marker-end="" class="st0" d="M-26.3,660.4l180-440"/>
	<path marker-end="" class="st0" d="M-26.3,660.4l180-400"/>
	<path marker-end="" class="st0" d="M-26.3,660.4l180-360"/>
	<path marker-end="" class="st0" d="M-26.3,660.4l180-320"/>
	<path marker-end="" class="st0" d="M-26.3,660.4l180-280"/>
	<path marker-end="" class="st0" d="M-26.3,660.4l180-240"/>
	<path marker-end="" class="st0" d="M-26.3,660.4l180-200"/>
	<path marker-end="" class="st0" d="M-26.3,660.4l180-160"/>
	<path marker-end="" class="st0" d="M-26.3,660.4l180-120"/>
	<path marker-end="" class="st0" d="M-26.3,660.4l180-80"/>
	<path marker-end="" class="st0" d="M153.7,140.4h180"/>
	<path marker-end="" class="st0" d="M153.7,140.4l180,40"/>
	<path marker-end="" class="st0" d="M153.7,140.4l180,80"/>
	<path marker-end="" class="st0" d="M153.7,140.4l180,120"/>
	<path marker-end="" class="st0" d="M153.7,140.4l180,160"/>
	<path marker-end="" class="st0" d="M153.7,140.4l180,200"/>
	<path marker-end="" class="st0" d="M153.7,140.4l180,240"/>
	<path marker-end="" class="st0" d="M153.7,140.4l180,280"/>
	<path marker-end="" class="st0" d="M153.7,140.4l180,320"/>
	<path marker-end="" class="st0" d="M153.7,180.4l180-40"/>
	<path marker-end="" class="st0" d="M153.7,180.4h180"/>
	<path marker-end="" class="st0" d="M153.7,180.4l180,40"/>
	<path marker-end="" class="st0" d="M153.7,180.4l180,80"/>
	<path marker-end="" class="st0" d="M153.7,180.4l180,120"/>
	<path marker-end="" class="st0" d="M153.7,180.4l180,160"/>
	<path marker-end="" class="st0" d="M153.7,180.4l180,200"/>
	<path marker-end="" class="st0" d="M153.7,180.4l180,240"/>
	<path marker-end="" class="st0" d="M153.7,180.4l180,280"/>
	<path marker-end="" class="st0" d="M153.7,220.4l180-80"/>
	<path marker-end="" class="st0" d="M153.7,220.4l180-40"/>
	<path marker-end="" class="st0" d="M153.7,220.4h180"/>
	<path marker-end="" class="st0" d="M153.7,220.4l180,40"/>
	<path marker-end="" class="st0" d="M153.7,220.4l180,80"/>
	<path marker-end="" class="st0" d="M153.7,220.4l180,120"/>
	<path marker-end="" class="st0" d="M153.7,220.4l180,160"/>
	<path marker-end="" class="st0" d="M153.7,220.4l180,200"/>
	<path marker-end="" class="st0" d="M153.7,220.4l180,240"/>
	<path marker-end="" class="st0" d="M153.7,260.4l180-120"/>
	<path marker-end="" class="st0" d="M153.7,260.4l180-80"/>
	<path marker-end="" class="st0" d="M153.7,260.4l180-40"/>
	<path marker-end="" class="st0" d="M153.7,260.4h180"/>
	<path marker-end="" class="st0" d="M153.7,260.4l180,40"/>
	<path marker-end="" class="st0" d="M153.7,260.4l180,80"/>
	<path marker-end="" class="st0" d="M153.7,260.4l180,120"/>
	<path marker-end="" class="st0" d="M153.7,260.4l180,160"/>
	<path marker-end="" class="st0" d="M153.7,260.4l180,200"/>
	<path marker-end="" class="st0" d="M153.7,300.4l180-160"/>
	<path marker-end="" class="st0" d="M153.7,300.4l180-120"/>
	<path marker-end="" class="st0" d="M153.7,300.4l180-80"/>
	<path marker-end="" class="st0" d="M153.7,300.4l180-40"/>
	<path marker-end="" class="st0" d="M153.7,300.4h180"/>
	<path marker-end="" class="st0" d="M153.7,300.4l180,40"/>
	<path marker-end="" class="st0" d="M153.7,300.4l180,80"/>
	<path marker-end="" class="st0" d="M153.7,300.4l180,120"/>
	<path marker-end="" class="st0" d="M153.7,300.4l180,160"/>
	<path marker-end="" class="st0" d="M153.7,340.4l180-200"/>
	<path marker-end="" class="st0" d="M153.7,340.4l180-160"/>
	<path marker-end="" class="st0" d="M153.7,340.4l180-120"/>
	<path marker-end="" class="st0" d="M153.7,340.4l180-80"/>
	<path marker-end="" class="st0" d="M153.7,340.4l180-40"/>
	<path marker-end="" class="st0" d="M153.7,340.4h180"/>
	<path marker-end="" class="st0" d="M153.7,340.4l180,40"/>
	<path marker-end="" class="st0" d="M153.7,340.4l180,80"/>
	<path marker-end="" class="st0" d="M153.7,340.4l180,120"/>
	<path marker-end="" class="st0" d="M153.7,380.4l180-240"/>
	<path marker-end="" class="st0" d="M153.7,380.4l180-200"/>
	<path marker-end="" class="st0" d="M153.7,380.4l180-160"/>
	<path marker-end="" class="st0" d="M153.7,380.4l180-120"/>
	<path marker-end="" class="st0" d="M153.7,380.4l180-80"/>
	<path marker-end="" class="st0" d="M153.7,380.4l180-40"/>
	<path marker-end="" class="st0" d="M153.7,380.4h180"/>
	<path marker-end="" class="st0" d="M153.7,380.4l180,40"/>
	<path marker-end="" class="st0" d="M153.7,380.4l180,80"/>
	<path marker-end="" class="st0" d="M153.7,420.4l180-280"/>
	<path marker-end="" class="st0" d="M153.7,420.4l180-240"/>
	<path marker-end="" class="st0" d="M153.7,420.4l180-200"/>
	<path marker-end="" class="st0" d="M153.7,420.4l180-160"/>
	<path marker-end="" class="st0" d="M153.7,420.4l180-120"/>
	<path marker-end="" class="st0" d="M153.7,420.4l180-80"/>
	<path marker-end="" class="st0" d="M153.7,420.4l180-40"/>
	<path marker-end="" class="st0" d="M153.7,420.4h180"/>
	<path marker-end="" class="st0" d="M153.7,420.4l180,40"/>
	<path marker-end="" class="st0" d="M153.7,460.4l180-320"/>
	<path marker-end="" class="st0" d="M153.7,460.4l180-280"/>
	<path marker-end="" class="st0" d="M153.7,460.4l180-240"/>
	<path marker-end="" class="st0" d="M153.7,460.4l180-200"/>
	<path marker-end="" class="st0" d="M153.7,460.4l180-160"/>
	<path marker-end="" class="st0" d="M153.7,460.4l180-120"/>
	<path marker-end="" class="st0" d="M153.7,460.4l180-80"/>
	<path marker-end="" class="st0" d="M153.7,460.4l180-40"/>
	<path marker-end="" class="st0" d="M153.7,460.4h180"/>
	<path marker-end="" class="st0" d="M153.7,500.4l180-360"/>
	<path marker-end="" class="st0" d="M153.7,500.4l180-320"/>
	<path marker-end="" class="st0" d="M153.7,500.4l180-280"/>
	<path marker-end="" class="st0" d="M153.7,500.4l180-240"/>
	<path marker-end="" class="st0" d="M153.7,500.4l180-200"/>
	<path marker-end="" class="st0" d="M153.7,500.4l180-160"/>
	<path marker-end="" class="st0" d="M153.7,500.4l180-120"/>
	<path marker-end="" class="st0" d="M153.7,500.4l180-80"/>
	<path marker-end="" class="st0" d="M153.7,500.4l180-40"/>
	<path marker-end="" class="st0" d="M153.7,540.4l180-400"/>
	<path marker-end="" class="st0" d="M153.7,540.4l180-360"/>
	<path marker-end="" class="st0" d="M153.7,540.4l180-320"/>
	<path marker-end="" class="st0" d="M153.7,540.4l180-280"/>
	<path marker-end="" class="st0" d="M153.7,540.4l180-240"/>
	<path marker-end="" class="st0" d="M153.7,540.4l180-200"/>
	<path marker-end="" class="st0" d="M153.7,540.4l180-160"/>
	<path marker-end="" class="st0" d="M153.7,540.4l180-120"/>
	<path marker-end="" class="st0" d="M153.7,540.4l180-80"/>
	<path marker-end="" class="st0" d="M153.7,580.4l180-440"/>
	<path marker-end="" class="st0" d="M153.7,580.4l180-400"/>
	<path marker-end="" class="st0" d="M153.7,580.4l180-360"/>
	<path marker-end="" class="st0" d="M153.7,580.4l180-320"/>
	<path marker-end="" class="st0" d="M153.7,580.4l180-280"/>
	<path marker-end="" class="st0" d="M153.7,580.4l180-240"/>
	<path marker-end="" class="st0" d="M153.7,580.4l180-200"/>
	<path marker-end="" class="st0" d="M153.7,580.4l180-160"/>
	<path marker-end="" class="st0" d="M153.7,580.4l180-120"/>
	<path marker-end="" class="st0" d="M153.7,140.4l180,360"/>
	<path marker-end="" class="st0" d="M153.7,180.4l180,320"/>
	<path marker-end="" class="st0" d="M153.7,220.4l180,280"/>
	<path marker-end="" class="st0" d="M153.7,260.4l180,240"/>
	<path marker-end="" class="st0" d="M153.7,300.4l180,200"/>
	<path marker-end="" class="st0" d="M153.7,340.4l180,160"/>
	<path marker-end="" class="st0" d="M153.7,380.4l180,120"/>
	<path marker-end="" class="st0" d="M153.7,420.4l180,80"/>
	<path marker-end="" class="st0" d="M153.7,460.4l180,40"/>
	<path marker-end="" class="st0" d="M153.7,500.4h180"/>
	<path marker-end="" class="st0" d="M153.7,540.4l180-40"/>
	<path marker-end="" class="st0" d="M153.7,580.4l180-80"/>
	<path marker-end="" class="st0" d="M153.7,140.4l180,400"/>
	<path marker-end="" class="st0" d="M153.7,180.4l180,360"/>
	<path marker-end="" class="st0" d="M153.7,220.4l180,320"/>
	<path marker-end="" class="st0" d="M153.7,260.4l180,280"/>
	<path marker-end="" class="st0" d="M153.7,300.4l180,240"/>
	<path marker-end="" class="st0" d="M153.7,340.4l180,200"/>
	<path marker-end="" class="st0" d="M153.7,380.4l180,160"/>
	<path marker-end="" class="st0" d="M153.7,420.4l180,120"/>
	<path marker-end="" class="st0" d="M153.7,460.4l180,80"/>
	<path marker-end="" class="st0" d="M153.7,500.4l180,40"/>
	<path marker-end="" class="st0" d="M153.7,540.4h180"/>
	<path marker-end="" class="st0" d="M153.7,580.4l180-40"/>
	<path marker-end="" class="st0" d="M333.7,140.4l180,60"/>
	<path marker-end="" class="st0" d="M333.7,180.4l180,20"/>
	<path marker-end="" class="st0" d="M333.7,220.4l180-20"/>
	<path marker-end="" class="st0" d="M333.7,260.4l180-60"/>
	<path marker-end="" class="st0" d="M333.7,300.4l180-100"/>
	<path marker-end="" class="st0" d="M333.7,340.4l180-140"/>
	<path marker-end="" class="st0" d="M333.7,380.4l180-180"/>
	<path marker-end="" class="st0" d="M333.7,420.4l180-220"/>
	<path marker-end="" class="st0" d="M333.7,460.4l180-260"/>
	<path marker-end="" class="st0" d="M333.7,500.4l180-300"/>
	<path marker-end="" class="st0" d="M333.7,540.4l180-340"/>
	<path marker-end="" class="st0" d="M333.7,140.4l180,100"/>
	<path marker-end="" class="st0" d="M333.7,180.4l180,60"/>
	<path marker-end="" class="st0" d="M333.7,220.4l180,20"/>
	<path marker-end="" class="st0" d="M333.7,260.4l180-20"/>
	<path marker-end="" class="st0" d="M333.7,300.4l180-60"/>
	<path marker-end="" class="st0" d="M333.7,340.4l180-100"/>
	<path marker-end="" class="st0" d="M333.7,380.4l180-140"/>
	<path marker-end="" class="st0" d="M333.7,420.4l180-180"/>
	<path marker-end="" class="st0" d="M333.7,460.4l180-220"/>
	<path marker-end="" class="st0" d="M333.7,500.4l180-260"/>
	<path marker-end="" class="st0" d="M333.7,540.4l180-300"/>
	<path marker-end="" class="st0" d="M333.7,140.4l180,140"/>
	<path marker-end="" class="st0" d="M333.7,180.4l180,100"/>
	<path marker-end="" class="st0" d="M333.7,220.4l180,60"/>
	<path marker-end="" class="st0" d="M333.7,260.4l180,20"/>
	<path marker-end="" class="st0" d="M333.7,300.4l180-20"/>
	<path marker-end="" class="st0" d="M333.7,340.4l180-60"/>
	<path marker-end="" class="st0" d="M333.7,380.4l180-100"/>
	<path marker-end="" class="st0" d="M333.7,420.4l180-140"/>
	<path marker-end="" class="st0" d="M333.7,460.4l180-180"/>
	<path marker-end="" class="st0" d="M333.7,500.4l180-220"/>
	<path marker-end="" class="st0" d="M333.7,540.4l180-260"/>
	<path marker-end="" class="st0" d="M333.7,140.4l180,180"/>
	<path marker-end="" class="st0" d="M333.7,180.4l180,140"/>
	<path marker-end="" class="st0" d="M333.7,220.4l180,100"/>
	<path marker-end="" class="st0" d="M333.7,260.4l180,60"/>
	<path marker-end="" class="st0" d="M333.7,300.4l180,20"/>
	<path marker-end="" class="st0" d="M333.7,340.4l180-20"/>
	<path marker-end="" class="st0" d="M333.7,380.4l180-60"/>
	<path marker-end="" class="st0" d="M333.7,420.4l180-100"/>
	<path marker-end="" class="st0" d="M333.7,460.4l180-140"/>
	<path marker-end="" class="st0" d="M333.7,500.4l180-180"/>
	<path marker-end="" class="st0" d="M333.7,540.4l180-220"/>
	<path marker-end="" class="st0" d="M333.7,140.4l180,220"/>
	<path marker-end="" class="st0" d="M333.7,180.4l180,180"/>
	<path marker-end="" class="st0" d="M333.7,220.4l180,140"/>
	<path marker-end="" class="st0" d="M333.7,260.4l180,100"/>
	<path marker-end="" class="st0" d="M333.7,300.4l180,60"/>
	<path marker-end="" class="st0" d="M333.7,340.4l180,20"/>
	<path marker-end="" class="st0" d="M333.7,380.4l180-20"/>
	<path marker-end="" class="st0" d="M333.7,420.4l180-60"/>
	<path marker-end="" class="st0" d="M333.7,460.4l180-100"/>
	<path marker-end="" class="st0" d="M333.7,500.4l180-140"/>
	<path marker-end="" class="st0" d="M333.7,540.4l180-180"/>
	<path marker-end="" class="st0" d="M333.7,140.4l180,260"/>
	<path marker-end="" class="st0" d="M333.7,180.4l180,220"/>
	<path marker-end="" class="st0" d="M333.7,220.4l180,180"/>
	<path marker-end="" class="st0" d="M333.7,260.4l180,140"/>
	<path marker-end="" class="st0" d="M333.7,300.4l180,100"/>
	<path marker-end="" class="st0" d="M333.7,340.4l180,60"/>
	<path marker-end="" class="st0" d="M333.7,380.4l180,20"/>
	<path marker-end="" class="st0" d="M333.7,420.4l180-20"/>
	<path marker-end="" class="st0" d="M333.7,460.4l180-60"/>
	<path marker-end="" class="st0" d="M333.7,500.4l180-100"/>
	<path marker-end="" class="st0" d="M333.7,540.4l180-140"/>
	<path marker-end="" class="st0" d="M333.7,140.4l180,300"/>
	<path marker-end="" class="st0" d="M333.7,180.4l180,260"/>
	<path marker-end="" class="st0" d="M333.7,220.4l180,220"/>
	<path marker-end="" class="st0" d="M333.7,260.4l180,180"/>
	<path marker-end="" class="st0" d="M333.7,300.4l180,140"/>
	<path marker-end="" class="st0" d="M333.7,340.4l180,100"/>
	<path marker-end="" class="st0" d="M333.7,380.4l180,60"/>
	<path marker-end="" class="st0" d="M333.7,420.4l180,20"/>
	<path marker-end="" class="st0" d="M333.7,460.4l180-20"/>
	<path marker-end="" class="st0" d="M333.7,500.4l180-60"/>
	<path marker-end="" class="st0" d="M333.7,540.4l180-100"/>
	<path marker-end="" class="st0" d="M333.7,140.4l180,340"/>
	<path marker-end="" class="st0" d="M333.7,180.4l180,300"/>
	<path marker-end="" class="st0" d="M333.7,220.4l180,260"/>
	<path marker-end="" class="st0" d="M333.7,260.4l180,220"/>
	<path marker-end="" class="st0" d="M333.7,300.4l180,180"/>
	<path marker-end="" class="st0" d="M333.7,340.4l180,140"/>
	<path marker-end="" class="st0" d="M333.7,380.4l180,100"/>
	<path marker-end="" class="st0" d="M333.7,420.4l180,60"/>
	<path marker-end="" class="st0" d="M333.7,460.4l180,20"/>
	<path marker-end="" class="st0" d="M333.7,500.4l180-20"/>
	<path marker-end="" class="st0" d="M333.7,540.4l180-60"/>
	<path marker-end="" class="st0" d="M333.7,140.4l180,380"/>
	<path marker-end="" class="st0" d="M333.7,180.4l180,340"/>
	<path marker-end="" class="st0" d="M333.7,220.4l180,300"/>
	<path marker-end="" class="st0" d="M333.7,260.4l180,260"/>
	<path marker-end="" class="st0" d="M333.7,300.4l180,220"/>
	<path marker-end="" class="st0" d="M333.7,340.4l180,180"/>
	<path marker-end="" class="st0" d="M333.7,380.4l180,140"/>
	<path marker-end="" class="st0" d="M333.7,420.4l180,100"/>
	<path marker-end="" class="st0" d="M333.7,460.4l180,60"/>
	<path marker-end="" class="st0" d="M333.7,500.4l180,20"/>
	<path marker-end="" class="st0" d="M333.7,540.4l180-20"/>
	<path marker-end="" class="st0" d="M153.7,140.4l180,440"/>
	<path marker-end="" class="st0" d="M153.7,180.4l180,400"/>
	<path marker-end="" class="st0" d="M153.7,220.4l180,360"/>
	<path marker-end="" class="st0" d="M153.7,260.4l180,320"/>
	<path marker-end="" class="st0" d="M153.7,300.4l180,280"/>
	<path marker-end="" class="st0" d="M153.7,340.4l180,240"/>
	<path marker-end="" class="st0" d="M153.7,380.4l180,200"/>
	<path marker-end="" class="st0" d="M153.7,420.4l180,160"/>
	<path marker-end="" class="st0" d="M153.7,460.4l180,120"/>
	<path marker-end="" class="st0" d="M153.7,500.4l180,80"/>
	<path marker-end="" class="st0" d="M153.7,540.4l180,40"/>
	<path marker-end="" class="st0" d="M153.7,580.4h180"/>
	<path marker-end="" class="st0" d="M333.7,580.4l180-380"/>
	<path marker-end="" class="st0" d="M333.7,580.4l180-340"/>
	<path marker-end="" class="st0" d="M333.7,580.4l180-300"/>
	<path marker-end="" class="st0" d="M333.7,580.4l180-260"/>
	<path marker-end="" class="st0" d="M333.7,580.4l180-220"/>
	<path marker-end="" class="st0" d="M333.7,580.4l180-180"/>
	<path marker-end="" class="st0" d="M333.7,580.4l180-140"/>
	<path marker-end="" class="st0" d="M333.7,580.4l180-100"/>
	<path marker-end="" class="st0" d="M333.7,580.4l180-60"/>
	
		<ellipse id="_x30__x5F_0" transform="matrix(0.1602 -0.9871 0.9871 0.1602 -81.7371 24.7127)" class="st1" cx="-26.3" cy="60.4" rx="10" ry="10"/>
	
		<ellipse id="_x30__x5F_1" transform="matrix(0.1602 -0.9871 0.9871 0.1602 -121.2206 58.3054)" class="st1" cx="-26.3" cy="100.4" rx="10" ry="10"/>
	
		<ellipse id="_x30__x5F_2" transform="matrix(0.1602 -0.9871 0.9871 0.1602 -160.7041 91.8981)" class="st1" cx="-26.3" cy="140.4" rx="10" ry="10"/>
	
		<ellipse id="_x30__x5F_3" transform="matrix(0.1602 -0.9871 0.9871 0.1602 -200.1876 125.4908)" class="st1" cx="-26.3" cy="180.4" rx="10" ry="10"/>
	
		<ellipse id="_x30__x5F_4" transform="matrix(0.1602 -0.9871 0.9871 0.1602 -239.6711 159.0835)" class="st1" cx="-26.3" cy="220.4" rx="10" ry="10"/>
	
		<ellipse id="_x30__x5F_5" transform="matrix(0.1602 -0.9871 0.9871 0.1602 -279.1546 192.6762)" class="st1" cx="-26.3" cy="260.4" rx="10" ry="10"/>
	
		<ellipse id="_x30__x5F_6" transform="matrix(0.1602 -0.9871 0.9871 0.1602 -318.6381 226.2689)" class="st1" cx="-26.3" cy="300.4" rx="10" ry="10"/>
	
		<ellipse id="_x30__x5F_7" transform="matrix(0.1602 -0.9871 0.9871 0.1602 -358.1216 259.8616)" class="st1" cx="-26.3" cy="340.4" rx="10" ry="10"/>
	
		<ellipse id="_x30__x5F_8" transform="matrix(0.1602 -0.9871 0.9871 0.1602 -397.6051 293.4543)" class="st1" cx="-26.3" cy="380.4" rx="10" ry="10"/>
	
		<ellipse id="_x30__x5F_9" transform="matrix(0.1602 -0.9871 0.9871 0.1602 -437.0886 327.047)" class="st1" cx="-26.3" cy="420.4" rx="10" ry="10"/>
	
		<ellipse id="_x30__x5F_10" transform="matrix(0.1602 -0.9871 0.9871 0.1602 -476.5721 360.6397)" class="st1" cx="-26.3" cy="460.4" rx="10" ry="10"/>
	
		<ellipse id="_x30__x5F_11" transform="matrix(0.1602 -0.9871 0.9871 0.1602 -516.0555 394.2325)" class="st1" cx="-26.3" cy="500.4" rx="10" ry="10"/>
	
		<ellipse id="_x30__x5F_12" transform="matrix(0.1602 -0.9871 0.9871 0.1602 -555.5391 427.8252)" class="st1" cx="-26.3" cy="540.4" rx="10" ry="10"/>
	
		<ellipse id="_x30__x5F_13" transform="matrix(0.1602 -0.9871 0.9871 0.1602 -595.0226 461.4179)" class="st1" cx="-26.3" cy="580.4" rx="10" ry="10"/>
	
		<ellipse id="_x30__x5F_14" transform="matrix(0.1602 -0.9871 0.9871 0.1602 -634.506 495.0106)" class="st1" cx="-26.3" cy="620.4" rx="10" ry="10"/>
	
		<ellipse id="_x30__x5F_15" transform="matrix(0.1602 -0.9871 0.9871 0.1602 -673.9896 528.6033)" class="st1" cx="-26.3" cy="660.4" rx="10" ry="10"/>
	<circle id="_x31__x5F_0" class="st1" cx="153.7" cy="140.4" r="10"/>
	<circle id="_x31__x5F_1" class="st1" cx="153.7" cy="180.4" r="10"/>
	<circle id="_x31__x5F_2" class="st1" cx="153.7" cy="220.4" r="10"/>
	<circle id="_x31__x5F_3" class="st1" cx="153.7" cy="260.4" r="10"/>
	<circle id="_x31__x5F_4" class="st1" cx="153.7" cy="300.4" r="10"/>
	<circle id="_x31__x5F_5" class="st1" cx="153.7" cy="340.4" r="10"/>
	<circle id="_x31__x5F_6" class="st1" cx="153.7" cy="380.4" r="10"/>
	<circle id="_x31__x5F_7" class="st1" cx="153.7" cy="420.4" r="10"/>
	<circle id="_x31__x5F_8" class="st1" cx="153.7" cy="460.4" r="10"/>
	<circle id="_x31__x5F_9" class="st1" cx="153.7" cy="500.4" r="10"/>
	<circle id="_x31__x5F_10" class="st1" cx="153.7" cy="540.4" r="10"/>
	<circle id="_x31__x5F_11" class="st1" cx="153.7" cy="580.4" r="10"/>
	<circle id="_x32__x5F_0" class="st1" cx="333.7" cy="140.4" r="10"/>
	<circle id="_x32__x5F_1" class="st1" cx="333.7" cy="180.4" r="10"/>
	<circle id="_x32__x5F_2" class="st1" cx="333.7" cy="220.4" r="10"/>
	<circle id="_x32__x5F_3" class="st1" cx="333.7" cy="260.4" r="10"/>
	<circle id="_x32__x5F_4" class="st1" cx="333.7" cy="300.4" r="10"/>
	<circle id="_x32__x5F_5" class="st1" cx="333.7" cy="340.4" r="10"/>
	<circle id="_x32__x5F_6" class="st1" cx="333.7" cy="380.4" r="10"/>
	<circle id="_x32__x5F_7" class="st1" cx="333.7" cy="420.4" r="10"/>
	<circle id="_x32__x5F_8" class="st1" cx="333.7" cy="460.4" r="10"/>
	<text transform="matrix(1 0 0 1 -61.3454 704.5916)" class="st2 st3">Image 24 x 24 pixels</text>
	<text transform="matrix(1 0 0 1 118.6547 704.5916)" class="st4"><tspan x="0" y="0" class="st2 st3">Hidden Layer </tspan><tspan x="74.7" y="0" class="st5 st3">128</tspan></text>
	<text transform="matrix(1 0 0 1 298.6547 704.5916)" class="st4"><tspan x="0" y="0" class="st2 st3">Hidden Layer </tspan><tspan x="74.7" y="0" class="st5 st3">128</tspan></text>
	<circle id="_x32__x5F_9" class="st1" cx="333.7" cy="500.4" r="10"/>
	<circle id="_x32__x5F_10" class="st1" cx="333.7" cy="540.4" r="10"/>
	<circle id="_x32__x5F_11" class="st1" cx="333.7" cy="580.4" r="10"/>
	<circle id="_x33__x5F_0" class="st1" cx="513.7" cy="200.4" r="10"/>
	<text transform="matrix(1 0 0 1 478.6547 704.5916)" class="st4"><tspan x="0" y="0" class="st2 st3">Output Layer </tspan><tspan x="72.7" y="0" class="st5 st3">numbers from 1 to 9</tspan></text>
	<circle id="_x33__x5F_1" class="st1" cx="513.7" cy="240.4" r="10"/>
	<circle id="_x33__x5F_2" class="st1" cx="513.7" cy="280.4" r="10"/>
	<circle id="_x33__x5F_3" class="st1" cx="513.7" cy="320.4" r="10"/>
	<circle id="_x33__x5F_4" class="st1" cx="513.7" cy="360.4" r="10"/>
	<circle id="_x33__x5F_5" class="st1" cx="513.7" cy="400.4" r="10"/>
	<circle id="_x33__x5F_6" class="st1" cx="513.7" cy="440.4" r="10"/>
	<circle id="_x33__x5F_7" class="st1" cx="513.7" cy="480.4" r="10"/>
	<circle id="_x33__x5F_8" class="st1" cx="513.7" cy="520.4" r="10"/>
</g>
<text transform="matrix(1 0 0 1 693.5905 170.7954)" class="st5 st3">1</text>
<text transform="matrix(1 0 0 1 693.9763 211.6626)" class="st5 st3">2</text>
<text transform="matrix(1 0 0 1 694.361 251.3735)" class="st5 st3">3</text>
<text transform="matrix(1 0 0 1 694.361 293.7832)" class="st5 st3">4</text>
<text transform="matrix(1 0 0 1 695.5182 333.4941)" class="st5 st3">5</text>
<text transform="matrix(1 0 0 1 693.9763 373.9756)" class="st5 st3">6</text>
<text transform="matrix(1 0 0 1 695.1325 412.916)" class="st5 st3">7</text>
<text transform="matrix(1 0 0 1 694.361 451.8554)" class="st5 st3">8</text>
<text transform="matrix(1 0 0 1 695.2966 492.4619)" class="st5 st3">9</text>
</svg>
